<svg width="1200" height="257" viewBox="0 0 1200 257" fill="none" xmlns="http://www.w3.org/2000/svg">
<rect width="1200" height="257" rx="8" fill="url(#paint0_linear_6863_3154)"/>
<path d="M490.797 173.19C490.797 178.897 487.191 182 482.602 182C477.966 182 474.384 178.874 474.384 173.19C474.384 167.482 477.966 164.379 482.602 164.379C487.191 164.379 490.797 167.482 490.797 173.19ZM486.208 173.19C486.208 170.04 484.92 168.311 482.602 168.311C480.261 168.311 478.973 170.04 478.973 173.19C478.973 176.34 480.261 178.068 482.602 178.068C484.92 178.068 486.208 176.34 486.208 173.19Z" fill="#E6F2FF"/>
<path d="M514.753 164.616V181.763H511.03L504.732 172.503H504.615V181.763H500.167V164.616H503.959L510.164 173.829H510.304V164.616H514.753Z" fill="#E6F2FF"/>
<path d="M524.24 181.763V164.616H528.688V178.116H535.595V181.763H524.24Z" fill="#E6F2FF"/>
<path d="M549.156 164.616V181.763H544.708V164.616H549.156Z" fill="#E6F2FF"/>
<path d="M573.229 164.616V181.763H569.507L563.209 172.503H563.091V181.763H558.643V164.616H562.436L568.64 173.829H568.781V164.616H573.229Z" fill="#E6F2FF"/>
<path d="M582.716 181.763V164.616H594.821V168.263H587.165V171.366H594.189V175.013H587.165V178.116H594.797V181.763H582.716Z" fill="#E6F2FF"/>
<path d="M623.722 164.616H628.124V176.387C628.1 179.75 625.501 182 621.779 182C618.548 182 615.902 180.366 615.925 176.482H620.374C620.421 177.784 621.029 178.471 622.06 178.471C623.137 178.471 623.698 177.761 623.722 176.387V164.616Z" fill="#E6F2FF"/>
<path d="M647.678 164.616H652.127V175.629C652.127 179.513 649.2 181.976 644.845 181.976C640.49 181.976 637.587 179.513 637.587 175.629V164.616H642.036V175.226C642.036 176.884 643.206 178.068 644.845 178.068C646.507 178.068 647.678 176.884 647.678 175.226V164.616Z" fill="#E6F2FF"/>
<path d="M668.052 181.763H661.614V164.616H668.005C673.226 164.616 676.481 167.837 676.481 173.19C676.481 178.542 673.226 181.763 668.052 181.763ZM666.062 177.926H667.888C670.51 177.926 671.985 176.813 671.985 173.19C671.985 169.566 670.51 168.453 667.771 168.453H666.062V177.926Z" fill="#E6F2FF"/>
<path d="M696.878 170.253C696.574 169.021 695.567 168.311 694.069 168.311C691.704 168.311 690.323 170.111 690.323 173.166C690.323 176.245 691.61 178.068 694.045 178.068C696.164 178.068 697.241 177.062 697.276 175.463H694.139V172.242H701.584V174.587C701.584 179.253 698.423 182 693.998 182C689.082 182 685.734 178.637 685.734 173.213C685.734 167.576 689.409 164.379 693.975 164.379C697.955 164.379 701.022 166.819 701.397 170.253H696.878Z" fill="#E6F2FF"/>
<path d="M711.001 181.763V164.616H723.105V168.263H715.449V171.366H722.473V175.013H715.449V178.116H723.082V181.763H711.001Z" fill="#E6F2FF"/>
<path d="M454.566 92.5588H438.934V94.499H445.167V96.4392H453.415V97.8943H444.113V98.3793H445.263V100.32H442.866V100.805H442.674V101.29H440.277V103.23H444.784V103.715H444.976V104.2H443.921V105.655H443.249V106.14H446.414V108.08H438.742V110.021H441.523V111.476H443.058V113.416H443.249V115.356H442.482V117.781H443.345V118.751H442.77V120.207H442.674V120.692H441.907V122.632H442.77V123.602H442.674V129.422H442.77V131.363H444.4V133.303H443.058V134.273H442.674V135.243H443.825V137.183H442.195V137.668H444.592V138.638H445.455V139.123H444.688V140.579H444.304V141.258C444.304 141.387 444.272 141.516 444.208 141.646C444.208 141.775 444.176 141.904 444.113 142.034H441.715C441.651 142.357 441.459 142.68 441.14 143.004H443.825C443.569 143.263 443.377 143.424 443.249 143.489H437.783C437.463 143.748 437.016 143.877 436.441 143.877H416.877C416.302 143.877 415.854 143.748 415.534 143.489H421.001C420.745 143.424 420.553 143.263 420.425 143.004H417.74C417.42 142.68 417.229 142.357 417.165 142.034H419.658C419.594 141.84 419.562 141.581 419.562 141.258V140.579H419.946V139.123H420.713V138.638H419.85V137.668H417.452V137.183H419.083V135.243H417.932V134.273H418.315V133.303H419.658V131.363H418.028V129.422H417.932V123.602H418.028V122.632H417.165V120.692H417.932V120.207H418.028V118.751H418.603V117.781H417.74V115.356H418.507V113.416H418.315V111.476H416.781V110.021H414V108.08H421.672V106.14H418.507V105.655H419.179V104.2H420.233V103.715H420.042V103.23H415.534V101.29H417.932V100.805H418.124V100.32H420.521V98.3793H419.37V97.8943H428.673V96.4392H420.425V94.499H414.192V92.5588H429.823V92.0737H420.042V90.6186H419.946V89.1634H418.22V88.6784H424.069V87.7083H419.658V85.7681H420.042V84.3129H417.356V82.3727H417.836V81.4026H417.548V80.4325H418.315V79.9475H417.452V78.5894C417.452 78.266 417.516 77.9103 417.644 77.5223H418.124C418.571 76.4875 419.37 75.9701 420.521 75.9701H440.085C441.236 75.9701 442.035 76.4875 442.482 77.5223H442.003C442.131 77.9103 442.195 78.266 442.195 78.5894V79.9475H443.058V80.4325H442.29V81.4026H442.578V82.3727H442.099V84.3129H444.784V85.7681H444.4V87.7083H448.812V88.6784H442.962V89.1634H444.688V90.6186H444.784V92.0737H454.566V92.5588Z" fill="#E6F2FF"/>
<path d="M522.67 138.638H523.15V139.608H520.656V141.549H514.327C514.327 141.807 514.263 142.066 514.135 142.325C514.007 142.583 513.879 142.81 513.752 143.004H510.491C510.235 143.263 510.043 143.424 509.916 143.489H513.752C513.432 143.748 512.984 143.877 512.409 143.877H497.257C496.873 143.877 496.522 143.845 496.202 143.78C495.882 143.651 495.594 143.554 495.339 143.489H491.407C491.151 143.36 490.895 143.198 490.64 143.004H493.9C493.581 142.745 493.325 142.486 493.133 142.228C492.941 141.969 492.781 141.775 492.654 141.646V141.549H498.887L497.64 139.608H500.134L499.462 138.638H498.983L498.024 137.183H486.995L485.653 135.243H487.091L485.845 133.303H482.488L482.105 132.818H486.516L485.557 131.363H487.571L486.612 129.908H482.68L481.433 127.967H487.475L487.187 127.482H484.023L483.447 126.512H480.474L479.228 124.572H477.597L477.31 124.087H481.721L480.762 122.632H475.775V124.087H470.98V124.572H477.501V126.512H478.46V127.482H478.556V127.967H475.775V129.908H471.268V131.363H476.542V132.818H475.583V133.303H474.433V135.243H476.542V137.183H477.405V138.638H473.474V139.608H476.83V141.549H472.611C472.611 141.807 472.547 142.066 472.419 142.325C472.291 142.583 472.163 142.81 472.035 143.004H475.104C474.848 143.263 474.656 143.424 474.529 143.489H471.556C471.236 143.748 470.788 143.877 470.213 143.877H452.855C452.216 143.877 451.736 143.748 451.417 143.489H454.485C454.358 143.424 454.166 143.263 453.91 143.004H450.745C450.617 142.81 450.49 142.583 450.362 142.325C450.234 142.066 450.17 141.807 450.17 141.549H454.294V139.608H450.937V138.638H454.869V137.183H454.006V135.243H451.896V133.303H453.047V132.818H454.006V131.363H448.731V129.908H453.239V127.967H456.02V127.482H455.924V126.512H454.965V124.572H448.444V124.087H453.239V122.632H457.842V122.147H452.759V121.662H454.677V119.721H453.143V117.781H453.239V117.296H452.472V116.811H452.567V115.356H448.923V114.871H451.417V113.901H445.759V111.961H455.253V110.991H449.211V109.05H452.663V108.565H453.239V107.11H454.965V106.14H455.828V104.685H453.335V104.2H452.376V103.23H451.417V101.29H453.239V99.8345H455.828V98.8644H461.87V98.3793H454.39V97.8943H451.896V96.4392H450.841V94.984H452.567V93.0438H455.061V91.5887H457.458V90.6186H452.663V90.1335H453.239V88.1933H455.444V87.7083H450.937V86.7382H453.718V84.798H450.074V83.3428H452.472V82.3727H443.936V80.9176H442.114V79.9475H448.54V78.5894C448.54 78.3307 448.572 78.1366 448.636 78.0073H455.061C455.061 77.7486 455.189 77.4252 455.444 77.0372H453.718C454.23 76.3258 454.933 75.9701 455.828 75.9701H470.98C471.683 75.9701 472.291 76.0671 472.802 76.2611C473.314 76.4551 473.729 76.7138 474.049 77.0372H475.775C476.031 77.2959 476.287 77.6193 476.542 78.0073H470.117C470.117 78.072 470.117 78.1043 470.117 78.1043C470.181 78.1043 470.213 78.1366 470.213 78.2013L471.268 79.9475H464.843L465.418 80.9176H467.24L468.103 82.3727H476.638L477.214 83.3428H474.912L475.775 84.798H479.323L480.57 86.7382H477.789L478.364 87.7083H482.872L483.159 88.1933H480.954L482.105 90.1335H481.529L481.817 90.6186H486.612L487.187 91.5887H484.79L485.749 93.0438H483.255L484.406 94.984H482.584L483.447 96.4392H484.502L485.461 97.8943H487.954L488.242 98.3793H489.681V97.8943H492.558V96.4392H489.777V94.984H490.448V93.0438H492.366V91.5887H494.667V90.6186H490.064V88.1933H495.722V87.7083H495.626V86.7382H489.585V84.798H491.695V83.3428H494.476V82.3727H488.626V80.9176H496.106V79.9475H495.531V78.5894C495.531 78.3307 495.563 78.1366 495.626 78.0073H492.462C492.526 77.7486 492.686 77.4252 492.941 77.0372H489.681C490.192 76.3258 490.895 75.9701 491.79 75.9701H509.148C510.043 75.9701 510.747 76.3258 511.258 77.0372H514.519C514.647 77.2959 514.774 77.6193 514.902 78.0073H518.067V79.9475H518.642V80.9176H511.162V82.3727H517.012V83.3428H514.231V84.798H512.121V86.7382H518.163V87.7083H518.259V88.1933H512.601V90.6186H517.204V91.5887H514.902V93.0438H512.984V94.984H512.313V96.4392H515.094V97.8943H512.217V98.3793H518.93V98.8644H515.382V99.8345H514.423V101.29H511.258V103.23H507.998V104.2H512.984V104.685H516.245V106.14H515.382V107.11H513.656V108.565H513.08V109.05H509.628V110.991H515.67V111.961H506.175V113.901H511.834V114.871H509.34V115.356H512.984V116.811H512.888V117.296H515.957V117.781H513.847V119.721H514.039V121.662H516.724V122.147H512.121V122.632H514.902V124.087H510.491V124.572H512.025V126.512H514.998V127.482H518.163V127.967H512.025V129.908H515.957V131.363H513.943V132.818H509.628V133.303H512.984V135.243H511.546V137.183H522.67V138.638ZM496.394 98.3793H495.722L496.01 98.8644H496.394V98.3793ZM489.968 98.8644L490.544 99.8345H487.954L488.818 101.29H491.886V99.8345H492.845V98.8644H489.968ZM488.722 101.29H486.995L488.146 103.23H488.722V101.29ZM482.296 122.147L482.009 121.662H479.323L478.077 119.721H477.789L476.542 117.781H478.652L478.269 117.296H475.775V117.781H475.679V119.721H477.214V121.662H475.296V122.147H482.296Z" fill="#E6F2FF"/>
<path d="M583.397 134.273H579.465L578.602 135.243H593.275C593.211 135.308 593.147 135.372 593.083 135.437C593.019 135.502 592.923 135.599 592.795 135.728H570.163C569.843 136.051 569.492 136.375 569.108 136.698C568.789 137.022 568.437 137.345 568.053 137.668H575.054L573.807 138.638H586.85L586.082 139.123H580.424C580.36 139.188 580.233 139.253 580.041 139.317C579.913 139.382 579.785 139.479 579.657 139.608H573.232L570.547 141.064H574.287C573.456 141.452 572.624 141.807 571.793 142.131C570.962 142.389 570.099 142.68 569.204 143.004H565.752C563.578 143.651 561.212 144.136 558.655 144.459H559.135C558.112 144.588 557.057 144.685 555.97 144.75C554.883 144.815 553.796 144.847 552.709 144.847C551.495 144.847 550.28 144.815 549.065 144.75C547.914 144.685 546.795 144.588 545.709 144.459H545.325C542.576 144.136 540.114 143.651 537.941 143.004H541.393C540.434 142.68 539.539 142.389 538.708 142.131C537.877 141.807 537.046 141.452 536.215 141.064H532.474C532.027 140.805 531.579 140.579 531.132 140.385C530.684 140.126 530.237 139.867 529.789 139.608H536.31L535.543 139.123H541.201C541.137 138.994 541.041 138.897 540.914 138.832C540.786 138.768 540.658 138.703 540.53 138.638H527.488C527.232 138.509 527.008 138.347 526.816 138.153C526.625 137.959 526.433 137.798 526.241 137.668H519.144C518.825 137.345 518.505 137.022 518.185 136.698C517.802 136.375 517.45 136.051 517.13 135.728H539.763C539.699 135.599 539.635 135.502 539.571 135.437C539.507 135.372 539.443 135.308 539.379 135.243H524.707C524.451 134.984 524.195 134.661 523.939 134.273H527.871C527.807 134.144 527.743 134.047 527.679 133.982C527.616 133.917 527.552 133.853 527.488 133.788H539.475L538.612 132.333H532.666L532.379 131.848H518.857C518.793 131.589 518.697 131.363 518.569 131.169C518.441 130.91 518.313 130.651 518.185 130.393H524.611L524.035 128.937H521.734L521.542 128.452H522.597C522.533 128.194 522.469 127.967 522.405 127.773C522.341 127.515 522.277 127.256 522.213 126.997H521.446C521.446 126.739 521.414 126.512 521.35 126.318C521.35 126.059 521.318 125.801 521.254 125.542H520.487C520.487 125.283 520.455 125.057 520.391 124.863C520.391 124.669 520.391 124.443 520.391 124.184V124.087H520.295C520.295 123.958 520.295 123.861 520.295 123.796C520.359 123.731 520.391 123.667 520.391 123.602H522.597C522.916 122.567 523.588 122.05 524.611 122.05H542.832C543.855 122.05 544.622 122.179 545.133 122.438C545.645 122.696 546.22 123.084 546.859 123.602H544.654L544.75 123.699C544.877 123.764 544.973 123.828 545.037 123.893C545.165 123.958 545.261 124.022 545.325 124.087H545.421C546.252 124.734 547.275 125.219 548.49 125.542H549.353C550.184 125.801 551.303 125.93 552.709 125.93C553.54 125.93 554.308 125.898 555.011 125.833C555.714 125.768 556.322 125.671 556.833 125.542H556.545C558.016 125.219 558.943 124.734 559.326 124.087H559.135C559.262 123.828 559.326 123.667 559.326 123.602H560.285L560.381 123.214C560.381 122.632 560.158 122.114 559.71 121.662H558.943C558.367 121.08 557.344 120.595 555.874 120.207H555.586C555.011 120.013 554.34 119.851 553.572 119.721C552.805 119.527 551.91 119.366 550.887 119.236H550.312L546.38 118.654C545.932 118.59 545.485 118.525 545.037 118.46C544.654 118.396 544.238 118.331 543.791 118.266C541.169 117.814 538.644 117.167 536.215 116.326H534.488C533.593 116.003 532.762 115.679 531.995 115.356H530.652C530.333 115.227 530.013 115.097 529.693 114.968C529.374 114.774 529.054 114.58 528.734 114.386H520.391C519.944 114.127 519.528 113.901 519.144 113.707C518.761 113.448 518.377 113.189 517.994 112.931H535.831C535.511 112.672 535.192 112.446 534.872 112.252C534.616 111.993 534.329 111.734 534.009 111.476H514.925C514.733 111.346 514.573 111.185 514.445 110.991C514.253 110.797 514.094 110.635 513.966 110.506H518.953C518.377 109.859 517.834 109.212 517.322 108.565H518.761L518.185 107.595H508.979C508.915 107.466 508.851 107.369 508.787 107.304C508.723 107.24 508.691 107.175 508.691 107.11H530.556C530.429 106.852 530.301 106.625 530.173 106.431C530.045 106.172 529.917 105.914 529.789 105.655H513.007L512.431 104.2H525.953L525.761 103.715H521.734L521.542 103.23H523.46C523.46 103.1 523.428 103.003 523.364 102.939C523.364 102.874 523.364 102.809 523.364 102.745H522.98L522.693 101.775H522.117L522.021 100.805H521.83V100.32H518.761C518.697 100.19 518.665 100.029 518.665 99.8345C518.665 99.6405 518.665 99.4788 518.665 99.3494H515.884L515.788 98.3793H526.72C526.657 98.25 526.625 98.0883 526.625 97.8943C526.625 97.7003 526.625 97.5386 526.625 97.4092H528.159V97.3122C528.159 96.9889 528.159 96.6655 528.159 96.3421C528.159 96.0188 528.191 95.7277 528.255 95.4691H524.131C524.195 95.2104 524.227 94.984 524.227 94.79C524.227 94.5313 524.259 94.2726 524.323 94.0139H531.036C531.036 93.8846 531.036 93.7876 531.036 93.7229C531.1 93.6582 531.132 93.5935 531.132 93.5289H524.323C524.451 93.1408 524.515 92.8175 524.515 92.5588H523.46L523.748 91.5887H522.117C522.309 90.8773 522.533 90.2305 522.789 89.6485H523.556L523.939 88.6784H524.994L525.857 87.2232H524.898C525.09 86.9645 525.25 86.7382 525.378 86.5442C525.57 86.2855 525.729 86.0268 525.857 85.7681H525.09L526.241 84.3129H528.255C528.319 84.1836 528.383 84.0866 528.447 84.0219C528.511 83.9572 528.575 83.8926 528.638 83.8279H525.953C526.209 83.5692 526.465 83.3428 526.72 83.1488C526.976 82.8901 527.232 82.6314 527.488 82.3727H529.022C529.406 82.0494 529.789 81.726 530.173 81.4026C530.556 81.0146 530.972 80.6912 531.42 80.4325H533.146C533.529 80.1739 533.913 79.9475 534.297 79.7535C534.68 79.4948 535.096 79.2361 535.543 78.9774H535.256C535.383 78.8481 535.543 78.751 535.735 78.6864C535.927 78.6217 536.087 78.557 536.215 78.4924H534.872C535 78.363 535.16 78.266 535.351 78.2013C535.543 78.1366 535.735 78.072 535.927 78.0073H534.968C535.863 77.6193 536.79 77.2636 537.749 76.9402C538.772 76.6168 539.795 76.3258 540.818 76.0671H542.256C543.727 75.7437 545.261 75.485 546.859 75.291C548.522 75.097 550.248 75 552.038 75C555.426 75 558.623 75.3557 561.628 76.0671H560.285C562.331 76.5198 564.313 77.1666 566.231 78.0073H567.094C567.286 78.072 567.478 78.1366 567.67 78.2013C567.861 78.266 568.053 78.363 568.245 78.4924H569.588C569.716 78.557 569.875 78.6217 570.067 78.6864C570.259 78.751 570.419 78.8481 570.547 78.9774H570.834C571.282 79.2361 571.697 79.4948 572.081 79.7535C572.529 79.9475 572.944 80.1739 573.328 80.4325H571.697C572.209 80.6912 572.656 81.0146 573.04 81.4026C573.488 81.726 573.903 82.0494 574.287 82.3727H572.848L574.383 83.8279H577.068L577.547 84.3129H575.533C575.789 84.5716 576.013 84.8303 576.205 85.089C576.46 85.283 576.684 85.5094 576.876 85.7681H577.643L578.794 87.2232H579.657L580.52 88.6784H579.465C579.657 89.0017 579.817 89.3251 579.945 89.6485H579.178C579.369 89.9718 579.529 90.2952 579.657 90.6186C579.785 90.9419 579.913 91.2653 580.041 91.5887H581.671C581.799 91.9767 581.863 92.3001 581.863 92.5588H583.014C583.078 92.6881 583.11 92.8498 583.11 93.0438C583.11 93.2378 583.142 93.3995 583.205 93.5289H590.014V94.0139H583.877C583.941 94.2726 583.973 94.6283 583.973 95.081V95.4691H580.424C580.169 96.6332 579.529 97.2152 578.506 97.2152H559.326C558.431 97.2152 557.696 97.0859 557.121 96.8272C556.609 96.5685 556.066 96.1805 555.49 95.6631L555.203 95.4691H558.751C558.431 95.2104 557.984 94.9517 557.408 94.693C556.833 94.3696 556.098 94.1433 555.203 94.0139H551.75C550.408 94.2079 549.481 94.693 548.969 95.4691H553.093C552.901 95.8571 552.805 96.2451 552.805 96.6332C552.805 96.9565 552.837 97.2152 552.901 97.4092H551.463C551.527 97.7326 551.782 98.056 552.23 98.3793H541.393C541.777 98.7027 542.448 99.0261 543.407 99.3494H546.188C546.7 99.5435 547.307 99.7375 548.01 99.9315C548.777 100.061 549.577 100.19 550.408 100.32H553.477C553.988 100.384 554.531 100.449 555.107 100.514C555.682 100.578 556.29 100.675 556.929 100.805H557.025C558.112 100.934 559.167 101.096 560.189 101.29C561.212 101.419 562.171 101.581 563.066 101.775H563.642C564.409 101.904 565.112 102.066 565.752 102.26C566.455 102.389 567.126 102.551 567.766 102.745H568.149C568.469 102.809 568.757 102.874 569.012 102.939C569.268 103.003 569.524 103.1 569.779 103.23H567.957C568.213 103.295 568.437 103.359 568.629 103.424C568.884 103.489 569.14 103.586 569.396 103.715H573.424C573.615 103.78 573.807 103.844 573.999 103.909C574.255 103.974 574.479 104.071 574.67 104.2H561.148C562.427 104.717 563.45 105.202 564.217 105.655H581C581.383 105.914 581.767 106.172 582.151 106.431C582.534 106.625 582.886 106.852 583.205 107.11H561.34C561.468 107.175 561.596 107.24 561.724 107.304C561.852 107.369 561.948 107.466 562.012 107.595H571.218C571.41 107.725 571.602 107.886 571.793 108.08C571.985 108.274 572.145 108.436 572.273 108.565H570.834C571.474 109.147 572.017 109.794 572.465 110.506H567.478C567.606 110.635 567.734 110.797 567.861 110.991C567.989 111.185 568.085 111.346 568.149 111.476H587.137L588 112.931H570.163C570.291 113.189 570.419 113.448 570.547 113.707C570.675 113.901 570.77 114.127 570.834 114.386H579.082L579.369 115.356H580.712L581 116.326H582.726C582.854 116.585 582.918 116.908 582.918 117.296C582.982 117.62 583.046 117.943 583.11 118.266L583.205 119.236H583.781C583.845 119.366 583.877 119.527 583.877 119.721C583.877 119.916 583.877 120.077 583.877 120.207H584.164V121.662H585.028V121.953C585.028 122.211 584.996 122.47 584.932 122.729C584.932 122.987 584.932 123.279 584.932 123.602H583.973V124.087H584.164C584.164 124.346 584.132 124.604 584.069 124.863C584.069 125.057 584.037 125.283 583.973 125.542H584.26L583.973 126.997H584.74C584.676 127.256 584.612 127.515 584.548 127.773C584.484 127.967 584.388 128.194 584.26 128.452H583.205C583.205 128.517 583.173 128.582 583.11 128.646C583.11 128.711 583.11 128.808 583.11 128.937H585.411L584.836 130.393H578.41C578.347 130.651 578.219 130.91 578.027 131.169C577.899 131.363 577.771 131.589 577.643 131.848H591.165L590.877 132.333H596.727C596.599 132.591 596.44 132.85 596.248 133.109C596.12 133.303 595.96 133.529 595.768 133.788H583.781C583.717 133.853 583.653 133.917 583.589 133.982C583.525 134.047 583.461 134.144 583.397 134.273ZM558.463 94.0139H561.34C561.148 93.9492 560.925 93.9169 560.669 93.9169C560.477 93.9169 560.253 93.9169 559.998 93.9169C559.742 93.9169 559.486 93.9169 559.23 93.9169C558.975 93.9169 558.719 93.9492 558.463 94.0139Z" fill="#E6F2FF"/>
<path d="M651.703 126.997H659.279V128.452H644.703V130.393H654.101V132.333H645.853V134.273H646.908V135.728H646.237V136.698H644.223V137.668H644.127V138.638H646.141V140.579H648.922V141.258C648.922 141.387 648.89 141.484 648.826 141.549H631.756C631.692 141.678 631.66 141.84 631.66 142.034H638.277C638.086 142.68 637.734 143.166 637.222 143.489H635.4C635.081 143.748 634.633 143.877 634.058 143.877H584.094C583.583 143.877 583.103 143.748 582.656 143.489H584.478C584.03 143.166 583.678 142.68 583.423 142.034H576.71C576.646 141.904 576.614 141.743 576.614 141.549H593.78V140.579H590.999V138.638H588.985V137.668H589.081V136.698H591.095V135.728H591.766V134.273H590.711V132.333H598.958V130.393H589.56V128.452H604.137V126.997H596.561V126.027H598.767V125.057H599.726V124.087H589.081V123.117H586.587V121.662H595.506V121.177H588.41V120.207H590.519V119.236H592.054V117.781H591.862V115.841H590.903V113.901H589.464V112.931H590.615V110.991H589.56V110.021H591.095V108.565H591.478V107.11H593.204V106.625H591.574V104.685H590.136V103.23H590.519V101.775H590.711V99.8345H592.15V97.8943H590.04V95.9541H590.327V94.0139H593.013V92.5588H591.574V91.1036H590.807V90.6186H594.835V89.1634H601.931V88.1933H599.054V87.2232H589.752V86.7382H590.807V85.283H590.903V83.8279H591.191V81.8877H591.095V79.4624H590.903V78.5894C590.903 78.3307 590.935 78.1366 590.999 78.0073H590.04C590.296 76.6492 591.127 75.9701 592.533 75.9701H641.73C643.2 75.9701 644.031 76.6492 644.223 78.0073H645.182C645.246 78.1366 645.278 78.3307 645.278 78.5894V79.4624H645.47V81.8877H645.566V83.8279H645.278V85.283H645.182V86.7382H644.127V87.2232H653.43V88.1933H656.307V89.1634H649.21V90.6186H645.182V91.1036H645.949V92.5588H647.388C647.26 93.2055 647.036 93.6905 646.717 94.0139H644.031C643.584 94.596 642.945 94.887 642.113 94.887H613.343V95.9541H613.056V97.8943H615.166V99.8345H613.727V100.999H640.387C641.09 100.999 641.698 101.257 642.209 101.775H642.017C642.337 102.098 642.561 102.583 642.689 103.23H642.401V104.685H643.84V106.625H645.47V107.11H643.744V108.565H643.36V110.021H641.826V110.991H642.881V112.931H641.73V113.901H643.168V115.841H644.127V116.229C644.127 116.941 643.967 117.458 643.648 117.781H643.84C643.328 118.493 642.625 118.848 641.73 118.848H615.07V119.236H613.535V120.207H611.425V121.177H618.522V121.662H609.603V123.117H612.097V124.087H622.742V124.96H652.279C652.598 124.96 652.854 124.992 653.046 125.057H651.991C652.63 125.251 653.11 125.574 653.43 126.027H651.224C651.48 126.415 651.639 126.739 651.703 126.997Z" fill="#E6F2FF"/>
<path d="M716.147 105.17H711.448C711.384 105.429 711.32 105.687 711.256 105.946C711.192 106.14 711.097 106.366 710.969 106.625H713.654L713.366 107.595H711.065C710.873 108.177 710.617 108.824 710.297 109.535H708.859C708.603 110.182 708.252 110.829 707.804 111.476H707.996C707.74 111.799 707.516 112.122 707.324 112.446C707.133 112.769 706.909 113.092 706.653 113.416H717.01L715.764 114.871H707.229C706.973 115.194 706.653 115.518 706.27 115.841C705.886 116.164 705.534 116.488 705.215 116.811H706.461C706.206 117.07 705.886 117.329 705.502 117.587C705.183 117.781 704.863 118.008 704.543 118.266H707.708L707.324 118.557L708.188 120.207H705.886L706.941 122.147H707.229L707.516 122.632H707.42L708.379 124.572H709.338L709.914 125.542H702.529L703.297 126.997H710.01L710.585 127.967H708.475L709.243 129.422H718.737L719.791 131.363H713.462L714.229 132.818H711.256L712.791 135.728H713.462L714.037 136.698H713.75L714.037 137.183H709.53L710.585 139.123L710.777 139.608H707.804L708.284 140.676C708.475 140.934 708.571 141.225 708.571 141.549H710.585V141.743C710.585 142.454 710.297 143.036 709.722 143.489H712.311C711.992 143.748 711.576 143.877 711.065 143.877H691.405C691.022 143.877 690.67 143.845 690.35 143.78C690.095 143.651 689.807 143.554 689.487 143.489H686.898C686.386 143.23 685.939 142.907 685.555 142.519C685.236 142.131 684.98 141.807 684.788 141.549H682.87L682.678 141.258L682.007 139.608H685.076L684.788 139.123H675.678V139.608H670.787V141.549H678.555C678.427 142.454 678.011 143.101 677.308 143.489H676.637C676.189 143.748 675.71 143.877 675.198 143.877H656.402C655.826 143.877 655.379 143.748 655.059 143.489H655.826C655.123 143.101 654.707 142.454 654.58 141.549H646.908C646.908 141.484 646.908 141.452 646.908 141.452C646.844 141.387 646.812 141.322 646.812 141.258V139.608H651.703V139.123H661.293V137.183H651.031V136.698H657.073V135.728H655.059V134.273H658.416V132.818H652.949V131.363H660.334V129.422H656.114V127.967H656.018V127.482H655.443V126.997H652.853V125.542H656.114V124.572H655.251V122.632H655.347V122.147H655.059V120.207H657.361V118.266H654.1V116.811H652.853V114.871H661.293V113.416H650.935V111.476H650.744V109.535H652.182V107.595H654.388V106.625H651.703V105.17H656.402V104.2H663.306V103.23H653.812V102.745H654.292V102.26H655.155V101.775H655.251V100.805H655.059V99.3494H655.443V97.4092H654.963V96.4392H655.443V94.984H655.059V94.499H655.347V93.5289H655.251V93.0438H654.867V92.5588H655.73V91.1036H656.498V89.6485H651.99V87.7083H653.045V85.7681H652.47V84.3129H655.059V82.8578H656.018V81.4026H654.292V80.4325H654.963V79.9475H655.155V78.4924H655.347C655.347 77.7809 655.635 77.1342 656.21 76.5522H661.389C661.772 76.1641 662.316 75.9701 663.019 75.9701H691.405C694.154 75.9701 696.712 76.1641 699.077 76.5522H693.994C696.552 76.9402 698.981 77.5869 701.283 78.4924H701.091C702.178 78.8804 703.233 79.3654 704.256 79.9475H704.064L704.927 80.4325H704.16C704.479 80.5619 704.735 80.7236 704.927 80.9176C705.183 81.1116 705.438 81.2733 705.694 81.4026H707.42C707.74 81.6613 708.06 81.92 708.379 82.1787C708.699 82.3727 708.987 82.5991 709.243 82.8578H708.284C708.603 83.1165 708.859 83.3752 709.051 83.6339C709.306 83.8279 709.562 84.0542 709.818 84.3129H707.229C707.484 84.5716 707.708 84.8303 707.9 85.089C708.092 85.283 708.283 85.5094 708.475 85.7681H708.955C709.466 86.4148 709.914 87.0615 710.297 87.7083H709.338C709.53 87.967 709.69 88.2903 709.818 88.6784C710.01 89.0017 710.201 89.3251 710.393 89.6485H714.901L715.476 91.1036H714.709C714.773 91.3623 714.837 91.621 714.901 91.8797C715.028 92.0737 715.124 92.3001 715.188 92.5588H714.229L714.421 93.0438H714.805C714.869 93.1732 714.901 93.3348 714.901 93.5289L715.188 94.499H715.476C715.476 94.693 715.508 94.8547 715.572 94.984H715.668C715.732 95.2427 715.764 95.5014 715.764 95.7601C715.828 95.9541 715.86 96.1805 715.86 96.4392H714.613C714.613 96.5685 714.613 96.7302 714.613 96.9242C714.613 97.1182 714.645 97.2799 714.709 97.4092H715.284C715.284 97.7326 715.284 98.056 715.284 98.3793C715.348 98.7027 715.38 99.0261 715.38 99.3494V100.32H715.955V100.805H715.38V101.775H714.421C714.421 101.839 714.389 101.904 714.325 101.969C714.325 102.033 714.325 102.13 714.325 102.26H715.284C715.284 102.324 715.252 102.389 715.188 102.454C715.188 102.518 715.188 102.615 715.188 102.745H719.696C719.632 102.874 719.6 103.036 719.6 103.23H720.846L720.75 104.2H716.339C716.211 104.588 716.147 104.911 716.147 105.17ZM677.787 103.23H687.281V104.2H680.377V104.297H687.377C687.825 104.297 688.176 104.265 688.432 104.2H692.844C693.547 104.006 694.186 103.683 694.762 103.23H693.419L693.899 102.745H689.391C689.583 102.551 689.711 102.389 689.775 102.26H688.816L689.104 101.775H690.063L690.35 100.805H690.83C690.894 100.675 690.926 100.514 690.926 100.32H690.35L690.446 99.3494C690.446 98.7027 690.35 98.056 690.158 97.4092H689.583C689.519 97.2799 689.455 97.1182 689.391 96.9242C689.391 96.7302 689.327 96.5685 689.199 96.4392H690.542C690.286 95.9218 689.935 95.4367 689.487 94.984H689.295C689.104 94.79 688.88 94.6283 688.624 94.499H688.336C687.697 94.1756 687.026 94.0139 686.322 94.0139H679.322V94.499H679.034V94.984H679.418V96.4392H678.938V97.4092H679.418V99.3494H679.034V100.805H679.226V101.775H679.13V102.26H678.267V102.745H677.787V103.23ZM685.363 125.542L684.98 124.572H683.925L683.158 122.729H679.226V124.572H680.089V125.542H685.363ZM676.828 125.542V126.997H678.65L678.075 125.542H676.828ZM685.555 127.482L685.363 126.997H679.418V127.482H679.993V127.967H680.089V129.422H684.309V131.363H676.924V132.818H682.391V134.273H679.034V135.728H681.048V136.698H675.006V137.183H688.528L688.24 136.698H688.528L688.049 135.728H687.281L686.706 134.273L686.035 132.818H689.104L688.432 131.363H694.666L693.803 129.422H684.309L683.733 127.967H685.843L685.555 127.482Z" fill="#E6F2FF"/>
<path d="M787 84.798H769.163V86.7382H775.971V88.1933H783.356V89.6485H783.164V91.1036H785.945V93.0438H775.492V93.5289H773.478V94.2079C773.478 94.6606 773.382 95.081 773.19 95.4691H779.999C779.552 96.3745 778.817 96.8272 777.794 96.8272H761.874V96.9242H762.833V98.8644H763.025V100.805H762.546V102.745H761.299V104.2H766.094V105.17H762.066V106.625H759.956V108.565H763.6V109.535H762.929V111.476H762.258V113.416H761.107V115.356H760.052V116.811H763.6V118.266H762.162V120.207H762.737V120.692H763.409V121.662H768.204V123.117H764.943V125.057H766.382V126.997H762.354V128.937H763.984V129.908H764.655V131.363H766.19V133.303H765.614V134.758H763.121V136.213H762.833V137.183H762.737V138.638H763.792V140.094H762.929V141.258C762.929 141.581 762.897 141.84 762.833 142.034H761.874C761.682 142.68 761.331 143.166 760.819 143.489H761.011C760.691 143.748 760.244 143.877 759.669 143.877H740.489C739.977 143.877 739.498 143.748 739.05 143.489H738.858C738.411 143.166 738.059 142.68 737.803 142.034H738.666C738.603 141.84 738.571 141.581 738.571 141.258V140.094H739.434V138.638H738.379V137.183H738.475V136.213H738.762V134.758H741.256V133.303H741.831V131.363H740.297V129.908H739.625V128.937H737.995V126.997H742.023V125.057H740.585V123.117H743.845V121.662H739.05V120.692H738.379V120.207H737.803V118.266H739.242V116.811H735.694V115.356H736.748V113.416H737.899V111.476H738.571V109.535H739.242V108.565H735.598V106.625H737.707V105.17H741.735V104.2H736.94V102.745H738.187V100.805H738.666V98.8644H738.475V96.9242H737.516V96.8272H721.596C720.637 96.8272 719.87 96.3745 719.295 95.4691H712.486C712.422 95.275 712.358 95.081 712.294 94.887C712.166 94.693 712.102 94.4666 712.102 94.2079V93.5289H714.116V93.0438H724.569V91.1036H721.788V89.6485H721.98V88.1933H714.596V86.7382H707.787V84.798H725.624V83.3428H715.651V81.4026H717.569V79.4624H720.062V78.9774H721.5V78.5894C721.5 77.9426 721.692 77.4252 722.076 77.0372H719.966C720.478 76.3258 721.181 75.9701 722.076 75.9701H778.273C779.168 75.9701 779.871 76.3258 780.383 77.0372H782.397C782.716 77.4899 782.876 78.0073 782.876 78.5894V78.9774H781.438V79.4624H778.944V81.4026H777.026V83.3428H787V84.798Z" fill="#E6F2FF"/>
<defs>
<linearGradient id="paint0_linear_6863_3154" x1="0" y1="128.5" x2="1200" y2="128.5" gradientUnits="userSpaceOnUse">
<stop stop-color="#004A99"/>
<stop offset="1" stop-color="white"/>
</linearGradient>
</defs>
</svg>
