<svg width="16" height="16" viewBox="0 0 16 16" fill="none" xmlns="http://www.w3.org/2000/svg">
<path d="M14.0009 3.90586L2.00092 3.90586C1.87943 3.9062 1.76033 3.9367 1.65647 3.99408C1.5526 4.05145 1.46789 4.13352 1.41146 4.23146C1.35502 4.32939 1.32899 4.43949 1.33618 4.54988C1.34337 4.66028 1.3835 4.7668 1.45225 4.85798L7.45225 12.7469C7.70092 13.074 8.29959 13.074 8.54892 12.7469L14.5489 4.85798C14.6184 4.76699 14.6591 4.66042 14.6667 4.54984C14.6743 4.43925 14.6484 4.3289 14.5919 4.23075C14.5354 4.13261 14.4505 4.05043 14.3463 3.99315C14.2421 3.93587 14.1226 3.90568 14.0009 3.90586Z" fill="#007CFF"/>
</svg>
